#tb 0: 1001/24000
#media_type 0: video
#codec_id 0: rawvideo
#dimensions 0: 320x180
#sar 0: 1/1
0,          0,          0,        1,   230400, 0x7b259d08
0,          1,          1,        1,   230400, 0xf04095e0
0,          2,          2,        1,   230400, 0x84d49cd5
0,          3,          3,        1,   230400, 0xd7a29aaf
0,          4,          4,        1,   230400, 0x9047947c
0,          5,          5,        1,   230400, 0xfeb990e7
0,          6,          6,        1,   230400, 0x51ee9295
0,          7,          7,        1,   230400, 0x66fd4833
0,          8,          8,        1,   230400, 0x4c0948f0
0,          9,          9,        1,   230400, 0x632b4776
0,         10,         10,        1,   230400, 0x7a3c87e2
0,         11,         11,        1,   230400, 0x4a9286ba
0,         12,         12,        1,   230400, 0x54dc8649
0,         13,         13,        1,   230400, 0x92628944
0,         14,         14,        1,   230400, 0x80f9899f
0,         15,         15,        1,   230400, 0x5cd78bd8
0,         16,         16,        1,   230400, 0x4b4ca390
0,         17,         17,        1,   230400, 0x82cca153
0,         18,         18,        1,   230400, 0x65f1a2d0
0,         19,         19,        1,   230400, 0x7df6ae4c
0,         20,         20,        1,   230400, 0x909baccc
0,         21,         21,        1,   230400, 0x1892ac65
0,         22,         22,        1,   230400, 0x3247bb32
0,         23,         23,        1,   230400, 0x592fbbe5
0,         24,         24,        1,   230400, 0x189db9d5
0,         25,         25,        1,   230400, 0x1a38b8da
0,         26,         26,        1,   230400, 0xccd6bd07
0,         27,         27,        1,   230400, 0xd4a2bc53
0,         28,         28,        1,   230400, 0x9ce3bb4e
0,         29,         29,        1,   230400, 0x5ffdc4db
0,         30,         30,        1,   230400, 0xc885c7c9
0,         31,         31,        1,   230400, 0xe27b9d33
0,         32,         32,        1,   230400, 0xac03a256
0,         33,         33,        1,   230400, 0xa2c73929
0,         34,         34,        1,   230400, 0x33793b73
0,         35,         35,        1,   230400, 0x1e400add
0,         36,         36,        1,   230400, 0x98e50c6e
0,         37,         37,        1,   230400, 0x68ed226d
0,         38,         38,        1,   230400, 0x569e23cb
0,         39,         39,        1,   230400, 0x82bf3fc0
0,         40,         40,        1,   230400, 0x2b202e86
0,         41,         41,        1,   230400, 0x7acd2dee
0,         42,         42,        1,   230400, 0xfe872e42
0,         43,         43,        1,   230400, 0x026c12e5
0,         44,         44,        1,   230400, 0x81561399
0,         45,         45,        1,   230400, 0xa08c13b6
0,         46,         46,        1,   230400, 0x89e712f5
0,         47,         47,        1,   230400, 0x569011ac
0,         48,         48,        1,   230400, 0xd4691112
0,         49,         49,        1,   230400, 0x2e50165a
0,         50,         50,        1,   230400, 0x0a1215b6
0,         51,         51,        1,   230400, 0x3c5316e3
0,         52,         52,        1,   230400, 0x079c1393
0,         53,         53,        1,   230400, 0x39ca1c48
0,         54,         54,        1,   230400, 0xe27f199c
0,         55,         55,        1,   230400, 0x10ab1bab
0,         56,         56,        1,   230400, 0xeab017c3
0,         57,         57,        1,   230400, 0x5f701f77
0,         58,         58,        1,   230400, 0x01371d7d
0,         59,         59,        1,   230400, 0x22751e99
0,         60,         60,        1,   230400, 0xaee91a97
0,         61,         61,        1,   230400, 0x27b41f32
0,         62,         62,        1,   230400, 0x4ff32bb1
0,         63,         63,        1,   230400, 0x86e02864
0,         64,         64,        1,   230400, 0x5eb52b3e
0,         65,         65,        1,   230400, 0xd9252ba8
0,         66,         66,        1,   230400, 0x72232d9b
0,         67,         67,        1,   230400, 0x599a206f
0,         68,         68,        1,   230400, 0x4d2c1ca5
0,         69,         69,        1,   230400, 0x9166293b
0,         70,         70,        1,   230400, 0x00992453
